<mxfile host="Electron" modified="2023-07-31T21:20:50.807Z" agent="Mozilla/5.0 (Windows NT 10.0; Win64; x64) AppleWebKit/537.36 (KHTML, like Gecko) draw.io/21.6.5 Chrome/114.0.5735.243 Electron/25.3.1 Safari/537.36" etag="gTY1adG3SgGiMxE0hTna" version="21.6.5" type="device">
  <diagram name="Page-1" id="us4D0EAYwRdBiZPWf7xh">
    <mxGraphModel dx="2284" dy="836" grid="1" gridSize="10" guides="1" tooltips="1" connect="1" arrows="1" fold="1" page="1" pageScale="1" pageWidth="850" pageHeight="1100" math="0" shadow="0">
      <root>
        <mxCell id="0" />
        <mxCell id="1" parent="0" />
        <mxCell id="mRBewoDBQZKnkpW5VFn1-1" value="&lt;b&gt;&lt;font color=&quot;#ff0000&quot;&gt;Red&lt;/font&gt;&lt;/b&gt;" style="shape=umlActor;verticalLabelPosition=bottom;verticalAlign=top;html=1;outlineConnect=0;strokeColor=#FF0000;strokeWidth=2;" vertex="1" parent="1">
          <mxGeometry x="170" y="160" width="30" height="60" as="geometry" />
        </mxCell>
        <mxCell id="mRBewoDBQZKnkpW5VFn1-2" value="&lt;font color=&quot;#00cc00&quot;&gt;&lt;b&gt;Green&lt;/b&gt;&lt;/font&gt;" style="shape=umlActor;verticalLabelPosition=bottom;verticalAlign=top;html=1;outlineConnect=0;strokeColor=#00CC00;strokeWidth=2;" vertex="1" parent="1">
          <mxGeometry x="170" y="260" width="30" height="60" as="geometry" />
        </mxCell>
        <mxCell id="mRBewoDBQZKnkpW5VFn1-3" value="&lt;b style=&quot;&quot;&gt;&lt;font color=&quot;#ffb366&quot;&gt;Yellow&lt;/font&gt;&lt;/b&gt;" style="shape=umlActor;verticalLabelPosition=bottom;verticalAlign=top;html=1;outlineConnect=0;strokeColor=#FFB366;strokeWidth=2;" vertex="1" parent="1">
          <mxGeometry x="170" y="370" width="30" height="60" as="geometry" />
        </mxCell>
        <mxCell id="mRBewoDBQZKnkpW5VFn1-4" value="&lt;font color=&quot;#3333ff&quot;&gt;&lt;b&gt;Blue&lt;/b&gt;&lt;/font&gt;" style="shape=umlActor;verticalLabelPosition=bottom;verticalAlign=top;html=1;outlineConnect=0;strokeWidth=2;strokeColor=#3333FF;" vertex="1" parent="1">
          <mxGeometry x="170" y="470" width="30" height="60" as="geometry" />
        </mxCell>
        <mxCell id="mRBewoDBQZKnkpW5VFn1-14" value="" style="edgeStyle=orthogonalEdgeStyle;rounded=0;orthogonalLoop=1;jettySize=auto;html=1;" edge="1" parent="1" source="mRBewoDBQZKnkpW5VFn1-8" target="mRBewoDBQZKnkpW5VFn1-13">
          <mxGeometry relative="1" as="geometry" />
        </mxCell>
        <mxCell id="mRBewoDBQZKnkpW5VFn1-8" value="Find a user to start" style="ellipse;whiteSpace=wrap;html=1;" vertex="1" parent="1">
          <mxGeometry x="-44" y="305" width="120" height="80" as="geometry" />
        </mxCell>
        <mxCell id="mRBewoDBQZKnkpW5VFn1-16" value="" style="edgeStyle=orthogonalEdgeStyle;rounded=0;orthogonalLoop=1;jettySize=auto;html=1;" edge="1" parent="1" source="mRBewoDBQZKnkpW5VFn1-13" target="mRBewoDBQZKnkpW5VFn1-15">
          <mxGeometry relative="1" as="geometry" />
        </mxCell>
        <mxCell id="mRBewoDBQZKnkpW5VFn1-13" value="Players" style="shape=umlFrame;whiteSpace=wrap;html=1;pointerEvents=0;width=110;height=20;" vertex="1" parent="1">
          <mxGeometry x="130" y="120" width="100" height="450" as="geometry" />
        </mxCell>
        <mxCell id="mRBewoDBQZKnkpW5VFn1-18" value="" style="edgeStyle=orthogonalEdgeStyle;rounded=0;orthogonalLoop=1;jettySize=auto;html=1;" edge="1" parent="1" source="mRBewoDBQZKnkpW5VFn1-15" target="mRBewoDBQZKnkpW5VFn1-17">
          <mxGeometry relative="1" as="geometry" />
        </mxCell>
        <mxCell id="mRBewoDBQZKnkpW5VFn1-15" value="Rolling the dice" style="ellipse;whiteSpace=wrap;html=1;" vertex="1" parent="1">
          <mxGeometry x="291" y="305" width="120" height="80" as="geometry" />
        </mxCell>
        <mxCell id="mRBewoDBQZKnkpW5VFn1-22" value="" style="edgeStyle=orthogonalEdgeStyle;rounded=0;orthogonalLoop=1;jettySize=auto;html=1;" edge="1" parent="1" source="mRBewoDBQZKnkpW5VFn1-17" target="mRBewoDBQZKnkpW5VFn1-21">
          <mxGeometry relative="1" as="geometry" />
        </mxCell>
        <mxCell id="mRBewoDBQZKnkpW5VFn1-17" value="Controller 1:&lt;br&gt;&lt;br&gt;Is it a 6?" style="rounded=0;whiteSpace=wrap;html=1;" vertex="1" parent="1">
          <mxGeometry x="480" y="311.25" width="101" height="67.5" as="geometry" />
        </mxCell>
        <mxCell id="mRBewoDBQZKnkpW5VFn1-21" value="Unlock to move out" style="ellipse;whiteSpace=wrap;html=1;rounded=0;" vertex="1" parent="1">
          <mxGeometry x="650" y="305" width="128.5" height="80" as="geometry" />
        </mxCell>
      </root>
    </mxGraphModel>
  </diagram>
</mxfile>
